<svg width="100" height="100" viewBox="0 0 100 100" fill="none" xmlns="http://www.w3.org/2000/svg">
  <!-- Border Frame -->
  <path d="M10 20C10 14.4772 14.4772 10 20 10H50C66.5685 10 80 23.4315 80 40V80C80 85.5228 75.5228 90 70 90H20C14.4772 90 10 85.5228 10 80V20Z" fill="black"/>
  
  <!-- Inset Background -->
  <path d="M15 25C15 22.2386 17.2386 20 20 20H48C62.3594 20 74 31.6406 74 46V78C74 80.7614 71.7614 83 69 83H20C17.2386 83 15 80.7614 15 78V25Z" fill="#F9FAFB"/>
  
  <!-- Sky/Sea -->
  <path d="M15 25C15 22.2386 17.2386 20 20 20H48C62.3594 20 74 31.6406 74 46V55H15V25Z" fill="#0EA5E9"/>
  
  <!-- Waves -->
  <path d="M15 52C15 52 20 50 25 52C30 54 35 52 40 54C45 56 50 54 55 56C60 58 65 56 70 58C72.5 59 74 58 74 58V65H15V52Z" fill="#38BDF8"/>
  
  <!-- Sand -->
  <path d="M15 65H74V78C74 80.7614 71.7614 83 69 83H20C17.2386 83 15 80.7614 15 78V65Z" fill="#FACC15"/>
  
  <!-- Sun -->
  <circle cx="25" cy="35" r="8" fill="#FFEB3B" stroke="#B45309" stroke-width="1"/>
  
  <!-- Starfish -->
  <path d="M65 75L66 77L68 77.5L66.5 78.5L67 80.5L65 79.5L63 80.5L63.5 78.5L62 77.5L64 77L65 75Z" fill="#EF4444"/>
  
  <!-- Umbrella/Sunshade Pole -->
  <rect x="42" y="45" width="2" height="30" transform="rotate(-15 42 45)" fill="#64748B"/>
  
  <!-- Umbrella/Sunshade Top -->
  <path d="M30 48C30 48 40 40 55 45L62 50C62 50 50 55 35 53L30 48Z" fill="white" stroke="#334155" stroke-width="0.5"/>
  <path d="M30 48C30 48 40 40 55 45L50 48C50 48 42 50 35 53L30 48Z" fill="#EF4444"/>
  <path d="M45 42C45 42 50 41 55 45L52 46L45 42Z" fill="#EF4444"/>
</svg>
