<svg width="120" height="120" viewBox="0 0 120 120" fill="none" xmlns="http://www.w3.org/2000/svg">
  <!-- Outer Black Frame with specific rounded shape -->
  <path d="M15 30C15 21.7157 21.7157 15 30 15H55C77.0914 15 95 32.9086 95 55V90C95 98.2843 88.2843 105 80 105H30C21.7157 105 15 98.2843 15 90V30Z" fill="black"/>
  
  <!-- Content Area -->
  <path d="M21 34C21 28.4772 25.4772 24 31 24H55C72.1208 24 86 37.8792 86 55V89C86 94.5228 81.5228 99 76 99H31C25.4772 99 21 94.5228 21 89V34Z" fill="#F9FAFB"/>
  
  <!-- Sky -->
  <path d="M21 34C21 28.4772 25.4772 24 31 24H50C69.8823 24 86 40.1177 86 60V65H21V34Z" fill="#0EA5E9"/>
  
  <!-- Ocean (Waves) -->
  <path d="M21 60C21 60 28 57 35 60C42 63 49 60 56 63C63 66 70 63 77 66C82 68 86 66 86 66V78H21V60Z" fill="#38BDF8"/>
  
  <!-- Sand -->
  <path d="M21 78H86V89C86 94.5228 81.5228 99 76 99H31C25.4772 99 21 94.5228 21 89V78Z" fill="#FFC107"/>
  
  <!-- Sun (Top Left) -->
  <circle cx="32" cy="36" r="6" fill="#FFEB3B"/>
  
  <!-- Starfish (Bottom Right) -->
  <path d="M72 88L73.5 90.5L76 91L74.5 92.5L75 95L72 93.5L69 95L69.5 92.5L68 91L70.5 90.5L72 88Z" fill="#F44336"/>
  
  <!-- Umbrella Pole -->
  <rect x="52" y="60" width="2" height="28" transform="rotate(15 52 60)" fill="#475569"/>
  
  <!-- Umbrella Canopy (Red & White segments) -->
  <!-- White part -->
  <path d="M42 55C42 55 55 40 78 55L82 62C82 62 65 65 50 62L42 55Z" fill="white"/>
  <!-- Red overlay -->
  <path d="M55 45.5C55 45.5 60 41 78 55L70 59C70 59 60 55 55 45.5Z" fill="#F44336"/>
  <path d="M42 55C42 55 48 48 55 45.5L50 58C50 58 45 57 42 55Z" fill="#F44336"/>
</svg>
