<svg width="120" height="120" viewBox="0 0 120 120" fill="none" xmlns="http://www.w3.org/2000/svg">
  <!-- Outer Thick Black Frame -->
  <rect x="10" y="10" width="100" height="100" rx="25" fill="black"/>
  
  <!-- Content Area (Smaller to create thick border effect) -->
  <rect x="20" y="20" width="80" height="80" rx="15" fill="#F9FAFB"/>
  
  <!-- Sky/Sea -->
  <path d="M20 35C20 26.7157 26.7157 20 35 20H85C93.2843 20 100 26.7157 100 35V65H20V35Z" fill="#0EA5E9"/>
  
  <!-- Waves -->
  <path d="M20 60C25 58 30 62 35 60C40 58 45 62 50 60C55 58 60 62 65 60C70 58 75 62 80 60C85 58 90 62 95 60C98 59 100 60 100 60V70H20V60Z" fill="#38BDF8"/>
  
  <!-- Sand -->
  <path d="M20 70H100V85C100 93.2843 93.2843 100 85 100H35C26.7157 100 20 93.2843 20 85V70Z" fill="#FFC107"/>
  
  <!-- Sun -->
  <circle cx="35" cy="35" r="7" fill="#FFEB3B"/>
  
  <!-- Starfish -->
  <path d="M85 85L87 88L90 88.5L88.5 90.5L89 93L85 91.5L81 93L81.5 90.5L80 88.5L83 88L85 85Z" fill="#F44336"/>
  
  <!-- Umbrella Pole -->
  <rect x="58" y="55" width="3" height="35" transform="rotate(15 58 55)" fill="#475569"/>
  
  <!-- Umbrella Canopy -->
  <path d="M40 55C40 55 55 35 85 55L90 65C90 65 70 70 45 65L40 55Z" fill="white"/>
  <!-- Red Segments -->
  <path d="M40 55C40 55 48 44 55 42L52 65C48 64 43 62 40 55Z" fill="#F44336"/>
  <path d="M68 43C68 43 78 45 85 55L75 66C70 60 68 53 68 43Z" fill="#F44336"/>
</svg>
